<svg height='100px' width='100px'  fill="#369d04" xmlns="http://www.w3.org/2000/svg" xmlns:xlink="http://www.w3.org/1999/xlink" version="1.1" x="0px" y="0px" viewBox="0 0 512 512" style="enable-background:new 0 0 512 512;" xml:space="preserve"><g><g><g><path d="M256.104,0C148.61,0,61.161,87.452,61.161,194.943C61.161,296.086,149.793,439.648,256,512     c106.208-72.352,194.839-215.912,194.839-317.057C450.839,87.452,363.48,0,256.104,0z M256.159,359.154     c-91.828,0-166.536-74.706-166.536-166.533c0-91.655,74.708-166.221,166.536-166.221c91.655,0,166.219,74.566,166.219,166.221     C422.378,284.448,347.814,359.154,256.159,359.154z"></path></g><g><path d="M199.464,191.964l3.083,4.621c2.867,4.302,8.698,5.466,12.999,2.601c3.684-2.458,8.207-3.063,12.411-1.663l7.239,2.413     l5.656-10.489l-20.842-26.399L199.464,191.964z"></path><path d="M226.415,202.152c-2.766-0.921-5.74-0.523-8.166,1.093c-2.422,1.615-5.167,2.389-7.883,2.389     c-4.607,0-9.136-2.229-11.881-6.34l-2.048-3.074l-48.069,67.653h52.366l32.113-59.577L226.415,202.152z"></path><path d="M180.232,124.83h9.759c1.35,0,2.439,1.094,2.439,2.438c0,4.036,3.284,7.319,7.318,7.319h19.517     c4.032,0,7.317-3.283,7.317-7.319c0-4.036-3.285-7.318-7.317-7.318h-9.758c-1.349,0-2.438-1.091-2.438-2.441     c0-4.033-3.284-7.315-7.321-7.315h-19.517c-4.032,0-7.314,3.282-7.314,7.315C172.918,121.546,176.2,124.83,180.232,124.83z"></path><path d="M260.659,177.889c0.47,1.884,1.666,3.435,3.367,4.369c1.698,0.933,3.653,1.11,5.492,0.496l2.13-0.71     c2.4-0.799,5.042-0.799,7.443,0l5.31,1.769c2.817,0.938,5.907-0.024,7.689-2.4l10.468-13.963l-23.938-37.792l-20.538,38.105     c0.054,0.121,0.104,0.249,0.138,0.386L260.659,177.889z"></path><path d="M305.352,171.858l-9.359,12.48c-2.266,3.024-5.776,4.709-9.409,4.709c-1.24,0-2.497-0.197-3.725-0.605l-5.31-1.771     c-1.404-0.468-2.951-0.468-4.356,0l-2.131,0.71c-3.099,1.034-6.518,0.723-9.385-0.85c-2.863-1.572-4.961-4.292-5.751-7.46     l-1.251-4.994l-8.768,16.272l-39.632,73.522h157.356L305.352,171.858z"></path></g></g></g></svg>